<svg width="564" height="354" viewBox="0 0 564 354" fill="none" xmlns="http://www.w3.org/2000/svg">
<g filter="url(#filter0_d_2_21)">
<rect x="4" y="4" width="556" height="346" rx="46" fill="#BFFCBE"/>
<rect x="95" y="56" width="373" height="230" rx="26" fill="#59B057"/>
<path d="M292.47 20.0696L258.687 93.5419L280.591 103.613L252.341 165.054L339.903 104.79L310.751 91.3856L363.781 52.8588L292.47 20.0696Z" fill="#BFFCBE"/>
<path d="M169.605 220V132.727H190.699V169.631H191.849L220.699 132.727H245.543L214.605 171.676L246.097 220H220.869L199.136 185.696L190.699 196.349V220H169.605ZM253.863 220V132.727H314.715V149.858H274.957V167.756H311.604V184.929H274.957V202.869H314.715V220H253.863ZM375.099 158.892C374.815 155.767 373.55 153.338 371.306 151.605C369.09 149.844 365.923 148.963 361.803 148.963C359.076 148.963 356.803 149.318 354.985 150.028C353.167 150.739 351.803 151.719 350.894 152.969C349.985 154.19 349.516 155.597 349.488 157.188C349.431 158.494 349.687 159.645 350.255 160.639C350.852 161.634 351.704 162.514 352.812 163.281C353.948 164.02 355.312 164.673 356.903 165.241C358.494 165.81 360.283 166.307 362.272 166.733L369.772 168.438C374.09 169.375 377.897 170.625 381.192 172.188C384.516 173.75 387.3 175.611 389.545 177.77C391.817 179.929 393.536 182.415 394.701 185.227C395.866 188.04 396.462 191.193 396.491 194.688C396.462 200.199 395.07 204.929 392.315 208.878C389.559 212.827 385.596 215.852 380.425 217.955C375.283 220.057 369.076 221.108 361.803 221.108C354.502 221.108 348.138 220.014 342.712 217.827C337.286 215.639 333.067 212.315 330.056 207.855C327.045 203.395 325.496 197.756 325.411 190.938H345.61C345.781 193.75 346.533 196.094 347.869 197.969C349.204 199.844 351.036 201.264 353.366 202.23C355.724 203.196 358.451 203.679 361.548 203.679C364.388 203.679 366.803 203.295 368.792 202.528C370.809 201.761 372.357 200.696 373.437 199.332C374.516 197.969 375.07 196.406 375.099 194.645C375.07 192.997 374.559 191.591 373.565 190.426C372.57 189.233 371.036 188.21 368.962 187.358C366.917 186.477 364.303 185.668 361.121 184.929L352.002 182.798C344.445 181.065 338.494 178.267 334.147 174.403C329.8 170.511 327.641 165.256 327.67 158.636C327.641 153.239 329.09 148.509 332.016 144.446C334.942 140.384 338.991 137.216 344.161 134.943C349.332 132.67 355.227 131.534 361.846 131.534C368.607 131.534 374.474 132.685 379.445 134.986C384.445 137.259 388.323 140.455 391.079 144.574C393.835 148.693 395.241 153.466 395.298 158.892H375.099Z" fill="#BFFCBE"/>
</g>
<defs>
<filter id="filter0_d_2_21" x="0" y="0" width="564" height="354" filterUnits="userSpaceOnUse" color-interpolation-filters="sRGB">
<feFlood flood-opacity="0" result="BackgroundImageFix"/>
<feColorMatrix in="SourceAlpha" type="matrix" values="0 0 0 0 0 0 0 0 0 0 0 0 0 0 0 0 0 0 127 0" result="hardAlpha"/>
<feOffset/>
<feGaussianBlur stdDeviation="2"/>
<feComposite in2="hardAlpha" operator="out"/>
<feColorMatrix type="matrix" values="0 0 0 0 0 0 0 0 0 0 0 0 0 0 0 0 0 0 0.25 0"/>
<feBlend mode="normal" in2="BackgroundImageFix" result="effect1_dropShadow_2_21"/>
<feBlend mode="normal" in="SourceGraphic" in2="effect1_dropShadow_2_21" result="shape"/>
</filter>
</defs>
</svg>
